<svg width="530" height="284" viewBox="0 0 530 284" fill="none" xmlns="http://www.w3.org/2000/svg">
<path d="M260.504 239.338C260.504 245.787 255.276 251.015 248.827 251.015C242.378 251.015 237.15 245.787 237.15 239.338C237.15 232.889 242.378 227.661 248.827 227.661C255.276 227.661 260.504 232.889 260.504 239.338Z" fill="black"/>
<path d="M99.6186 190.027C98.053 196.283 91.7124 200.085 85.4564 198.519C79.2003 196.954 75.398 190.613 76.9636 184.357C78.5292 178.101 84.8698 174.299 91.1258 175.864C97.3818 177.43 101.184 183.771 99.6186 190.027Z" fill="black"/>
<path d="M107.555 163.124C105.989 169.38 99.6484 173.182 93.3924 171.617C87.1363 170.051 83.334 163.711 84.8996 157.455C86.4652 151.199 92.8058 147.396 99.0618 148.962C105.318 150.527 109.12 156.868 107.555 163.124Z" fill="black"/>
<path d="M63.3706 180.955C61.805 187.211 55.4644 191.014 49.2084 189.448C42.9524 187.883 39.15 181.542 40.7156 175.286C42.2812 169.03 48.6218 165.228 54.8778 166.793C61.1338 168.359 64.9362 174.699 63.3706 180.955Z" fill="black"/>
<path d="M72.4394 154.336C70.8738 160.592 64.5331 164.395 58.2771 162.829C52.0211 161.264 48.2188 154.923 49.7843 148.667C51.3499 142.411 57.6906 138.609 63.9466 140.174C70.2026 141.74 74.0049 148.08 72.4394 154.336Z" fill="black"/>
<path d="M85.1899 127.435C83.6243 133.691 77.2837 137.493 71.0277 135.928C64.7717 134.362 60.9693 128.022 62.5349 121.766C64.1005 115.51 70.4411 111.707 76.6971 113.273C82.9531 114.838 86.7555 121.179 85.1899 127.435Z" fill="black"/>
<path d="M25.9897 171.601C24.4242 177.857 18.0835 181.659 11.8275 180.094C5.5715 178.528 1.76916 172.187 3.33473 165.931C4.90031 159.675 11.241 155.873 17.497 157.439C23.753 159.004 27.5553 165.345 25.9897 171.601Z" fill="black"/>
<path d="M35.0586 144.982C33.493 151.238 27.1524 155.04 20.8964 153.474C14.6403 151.909 10.838 145.568 12.4036 139.312C13.9692 133.056 20.3098 129.254 26.5658 130.819C32.8218 132.385 36.6242 138.726 35.0586 144.982Z" fill="black"/>
<path d="M46.393 118.93C44.8275 125.186 38.4868 128.988 32.2308 127.422C25.9748 125.857 22.1724 119.516 23.738 113.26C25.3036 107.004 31.6442 103.202 37.9003 104.767C44.1563 106.333 47.9586 112.674 46.393 118.93Z" fill="black"/>
<path d="M60.2764 92.3117C58.7108 98.5677 52.3701 102.37 46.1141 100.804C39.8581 99.2389 36.0558 92.8983 37.6214 86.6423C39.1869 80.3863 45.5276 76.5839 51.7836 78.1495C58.0396 79.7151 61.8419 86.0557 60.2764 92.3117Z" fill="black"/>
<path d="M130.786 128.012C129.22 134.268 122.88 138.071 116.624 136.505C110.368 134.939 106.565 128.599 108.131 122.343C109.696 116.087 116.037 112.284 122.293 113.85C128.549 115.416 132.351 121.756 130.786 128.012Z" fill="black"/>
<path d="M151.182 104.228C149.616 110.484 143.276 114.286 137.02 112.721C130.764 111.155 126.961 104.814 128.527 98.5584C130.093 92.3024 136.433 88.5 142.689 90.0656C148.945 91.6312 152.748 97.9718 151.182 104.228Z" fill="black"/>
<path d="M176.959 82.9936C175.393 89.2496 169.052 93.052 162.796 91.4864C156.54 89.9208 152.738 83.5802 154.304 77.3242C155.869 71.0682 162.21 67.2658 168.466 68.8314C174.722 70.397 178.524 76.7376 176.959 82.9936Z" fill="black"/>
<path d="M205 67.1408C203.434 73.3968 197.093 77.1992 190.837 75.6336C184.581 74.068 180.779 67.7274 182.345 61.4714C183.91 55.2154 190.251 51.413 196.507 52.9786C202.763 54.5442 206.565 60.8848 205 67.1408Z" fill="black"/>
<path d="M233.889 57.5188C232.323 63.7748 225.983 67.5772 219.727 66.0116C213.471 64.446 209.668 58.1054 211.234 51.8494C212.799 45.5933 219.14 41.791 225.396 43.3566C231.652 44.9222 235.454 51.2628 233.889 57.5188Z" fill="black"/>
<path d="M107.288 92.0397C105.723 98.2957 99.3821 102.098 93.1261 100.532C86.8701 98.9669 83.0678 92.6262 84.6333 86.3702C86.1989 80.1142 92.5396 76.3119 98.7956 77.8775C105.052 79.443 108.854 85.7837 107.288 92.0397Z" fill="black"/>
<path d="M129.667 69.9551C128.101 76.2111 121.76 80.0134 115.504 78.4478C109.248 76.8823 105.446 70.5416 107.012 64.2856C108.577 58.0296 114.918 54.2273 121.174 55.7928C127.43 57.3584 131.232 63.6991 129.667 69.9551Z" fill="black"/>
<path d="M156.293 50.1371C154.727 56.3931 148.386 60.1954 142.13 58.6298C135.874 57.0643 132.072 50.7236 133.638 44.4676C135.203 38.2116 141.544 34.4093 147.8 35.9748C154.056 37.5404 157.858 43.8811 156.293 50.1371Z" fill="black"/>
<path d="M85.4894 58.8996C83.9238 65.1556 77.5832 68.9579 71.3272 67.3924C65.0712 65.8268 61.2688 59.4861 62.8344 53.2301C64.4 46.9741 70.7406 43.1718 76.9966 44.7373C83.2526 46.3029 87.055 52.6436 85.4894 58.8996Z" fill="black"/>
<path d="M108.717 38.2312C107.151 44.4872 100.811 48.2895 94.5548 46.7239C88.2988 45.1584 84.4964 38.8177 86.062 32.5617C87.6276 26.3057 93.9682 22.5034 100.224 24.0689C106.48 25.6345 110.283 31.9752 108.717 38.2312Z" fill="black"/>
<path d="M134.494 16.997C132.928 23.253 126.587 27.0553 120.331 25.4897C114.075 23.9242 110.273 17.5835 111.839 11.3275C113.404 5.0715 119.745 1.26916 126.001 2.83474C132.257 4.40032 136.059 10.741 134.494 16.997Z" fill="black"/>
<path d="M184.334 34.2843C182.768 40.5403 176.427 44.3426 170.171 42.777C163.915 41.2115 160.113 34.8708 161.679 28.6148C163.244 22.3588 169.585 18.5565 175.841 20.122C182.097 21.6876 185.899 28.0283 184.334 34.2843Z" fill="black"/>
<path d="M430.382 190.027C431.947 196.283 438.288 200.085 444.544 198.519C450.8 196.954 454.602 190.613 453.037 184.357C451.471 178.101 445.13 174.299 438.874 175.864C432.618 177.43 428.816 183.771 430.382 190.027Z" fill="black"/>
<path d="M422.445 163.124C424.011 169.38 430.352 173.182 436.608 171.617C442.864 170.051 446.666 163.711 445.1 157.455C443.535 151.199 437.194 147.396 430.938 148.962C424.682 150.527 420.88 156.868 422.445 163.124Z" fill="black"/>
<path d="M466.63 180.955C468.195 187.211 474.536 191.014 480.792 189.448C487.048 187.883 490.85 181.542 489.285 175.286C487.719 169.03 481.378 165.228 475.122 166.793C468.866 168.359 465.064 174.699 466.63 180.955Z" fill="black"/>
<path d="M457.561 154.336C459.126 160.592 465.467 164.395 471.723 162.829C477.979 161.264 481.781 154.923 480.216 148.667C478.65 142.411 472.309 138.609 466.053 140.174C459.797 141.74 455.995 148.08 457.561 154.336Z" fill="black"/>
<path d="M444.81 127.435C446.376 133.691 452.716 137.493 458.972 135.928C465.228 134.362 469.031 128.022 467.465 121.766C465.9 115.51 459.559 111.707 453.303 113.273C447.047 114.838 443.245 121.179 444.81 127.435Z" fill="black"/>
<path d="M504.01 171.601C505.576 177.857 511.917 181.659 518.173 180.094C524.429 178.528 528.231 172.187 526.665 165.931C525.1 159.675 518.759 155.873 512.503 157.439C506.247 159.004 502.445 165.345 504.01 171.601Z" fill="black"/>
<path d="M494.942 144.982C496.507 151.238 502.848 155.04 509.104 153.474C515.36 151.909 519.162 145.568 517.597 139.312C516.031 133.056 509.69 129.254 503.434 130.819C497.178 132.385 493.376 138.726 494.942 144.982Z" fill="black"/>
<path d="M483.607 118.93C485.173 125.186 491.513 128.988 497.769 127.422C504.025 125.857 507.828 119.516 506.262 113.26C504.697 107.004 498.356 103.202 492.1 104.767C485.844 106.333 482.042 112.674 483.607 118.93Z" fill="black"/>
<path d="M469.724 92.3117C471.289 98.5677 477.63 102.37 483.886 100.804C490.142 99.2389 493.944 92.8983 492.379 86.6423C490.813 80.3863 484.473 76.5839 478.217 78.1495C471.96 79.7151 468.158 86.0557 469.724 92.3117Z" fill="black"/>
<path d="M399.214 128.012C400.78 134.268 407.12 138.071 413.377 136.505C419.633 134.939 423.435 128.599 421.869 122.343C420.304 116.087 413.963 112.284 407.707 113.85C401.451 115.416 397.649 121.756 399.214 128.012Z" fill="black"/>
<path d="M378.818 104.228C380.384 110.484 386.724 114.286 392.98 112.721C399.236 111.155 403.039 104.814 401.473 98.5584C399.907 92.3024 393.567 88.5 387.311 90.0656C381.055 91.6312 377.252 97.9718 378.818 104.228Z" fill="black"/>
<path d="M353.041 82.9936C354.607 89.2496 360.948 93.052 367.204 91.4864C373.46 89.9208 377.262 83.5802 375.696 77.3242C374.131 71.0682 367.79 67.2658 361.534 68.8314C355.278 70.397 351.476 76.7376 353.041 82.9936Z" fill="black"/>
<path d="M325 67.1408C326.566 73.3968 332.907 77.1992 339.163 75.6336C345.419 74.068 349.221 67.7274 347.655 61.4714C346.09 55.2154 339.749 51.413 333.493 52.9786C327.237 54.5442 323.435 60.8848 325 67.1408Z" fill="black"/>
<path d="M296.111 57.5188C297.677 63.7748 304.017 67.5772 310.273 66.0116C316.529 64.446 320.332 58.1054 318.766 51.8494C317.201 45.5933 310.86 41.791 304.604 43.3566C298.348 44.9222 294.546 51.2628 296.111 57.5188Z" fill="black"/>
<path d="M422.712 92.0397C424.277 98.2957 430.618 102.098 436.874 100.532C443.13 98.9669 446.932 92.6262 445.367 86.3702C443.801 80.1142 437.46 76.3119 431.204 77.8775C424.948 79.443 421.146 85.7837 422.712 92.0397Z" fill="black"/>
<path d="M400.333 69.9551C401.899 76.2111 408.24 80.0134 414.496 78.4478C420.752 76.8823 424.554 70.5416 422.988 64.2856C421.423 58.0296 415.082 54.2273 408.826 55.7928C402.57 57.3584 398.768 63.6991 400.333 69.9551Z" fill="black"/>
<path d="M373.707 50.1371C375.273 56.3931 381.614 60.1954 387.87 58.6298C394.126 57.0643 397.928 50.7236 396.362 44.4676C394.797 38.2116 388.456 34.4093 382.2 35.9748C375.944 37.5404 372.142 43.8811 373.707 50.1371Z" fill="black"/>
<path d="M444.511 58.8996C446.076 65.1556 452.417 68.9579 458.673 67.3924C464.929 65.8268 468.731 59.4861 467.166 53.2301C465.6 46.9741 459.259 43.1718 453.003 44.7373C446.747 46.3029 442.945 52.6436 444.511 58.8996Z" fill="black"/>
<path d="M421.283 38.2312C422.849 44.4872 429.189 48.2895 435.445 46.7239C441.701 45.1584 445.504 38.8177 443.938 32.5617C442.372 26.3057 436.032 22.5034 429.776 24.0689C423.52 25.6345 419.717 31.9752 421.283 38.2312Z" fill="black"/>
<path d="M395.506 16.997C397.072 23.253 403.413 27.0553 409.669 25.4897C415.925 23.9242 419.727 17.5835 418.161 11.3275C416.596 5.0715 410.255 1.26916 403.999 2.83474C397.743 4.40032 393.941 10.741 395.506 16.997Z" fill="black"/>
<path d="M345.667 34.2843C347.232 40.5403 353.573 44.3426 359.829 42.777C366.085 41.2115 369.887 34.8708 368.322 28.6148C366.756 22.3588 360.415 18.5565 354.159 20.122C347.903 21.6876 344.101 28.0283 345.667 34.2843Z" fill="black"/>
<path d="M276.851 272.033C276.851 278.482 271.624 283.71 265.175 283.71C258.726 283.71 253.498 278.482 253.498 272.033C253.498 265.584 258.726 260.356 265.175 260.356C271.624 260.356 276.851 265.584 276.851 272.033Z" fill="black"/>
<path d="M346.912 272.033C346.912 278.482 341.684 283.71 335.236 283.71C328.787 283.71 323.559 278.482 323.559 272.033C323.559 265.584 328.787 260.356 335.236 260.356C341.684 260.356 346.912 265.584 346.912 272.033Z" fill="black"/>
<path d="M295.534 239.338C295.534 245.787 290.307 251.015 283.858 251.015C277.409 251.015 272.181 245.787 272.181 239.338C272.181 232.889 277.409 227.661 283.858 227.661C290.307 227.661 295.534 232.889 295.534 239.338Z" fill="black"/>
</svg>
